<svg width="26" height="26" viewBox="0 0 26 26" fill="none" xmlns="http://www.w3.org/2000/svg">
<path d="M17.5 6.125C17.5 7.21902 17.0786 8.26823 16.3284 9.04182C15.5783 9.8154 14.5609 10.25 13.5 10.25C12.4391 10.25 11.4217 9.8154 10.6716 9.04182C9.92143 8.26823 9.5 7.21902 9.5 6.125C9.5 5.03098 9.92143 3.98177 10.6716 3.20818C11.4217 2.4346 12.4391 2 13.5 2C14.5609 2 15.5783 2.4346 16.3284 3.20818C17.0786 3.98177 17.5 5.03098 17.5 6.125ZM21.3989 24C22.5421 24 23.4731 23.0306 23.2186 21.916C20.9235 11.8618 6.07647 11.8618 3.78136 21.916" stroke="black" stroke-width="1.5" stroke-linecap="round" stroke-linejoin="round"/>
</svg>
