<svg width="26" height="26" viewBox="0 0 26 26" fill="none" xmlns="http://www.w3.org/2000/svg">
<path d="M18.2305 2.75C19.8944 2.75 21.4105 3.21781 22.5068 4.19336C23.5954 5.1634 24.2499 6.61768 24.25 8.58008C24.25 10.073 23.6385 11.6179 22.7012 13.1045L22.5088 13.4014C21.4652 14.9779 20.0747 16.4824 18.6855 17.7861C17.1291 19.2394 15.4606 20.5879 13.6953 21.8232L13.5947 21.6914L13 22.1484L12.4053 21.6914L12.3047 21.8213C10.5396 20.5869 8.87109 19.2396 7.31445 17.7871C5.92521 16.4822 4.53471 14.9778 3.49121 13.4014H3.49023C2.44618 11.8225 1.75 10.1721 1.75 8.58008C1.75017 5.42217 4.38047 2.75 7.76953 2.75C9.66398 2.75009 11.3327 3.59352 12.4277 4.8877L13 5.56445L13.5723 4.8877C14.6673 3.59347 16.3349 2.75009 18.2305 2.75Z" stroke="black" stroke-width="1.5"/>
</svg>
