<svg width="45" height="45" viewBox="0 0 45 45" fill="none" xmlns="http://www.w3.org/2000/svg">
<path d="M24.4276 3.75C26.537 3.75563 27.6076 3.76688 28.532 3.79313L28.8957 3.80625C29.3157 3.82125 29.7301 3.84 30.2307 3.8625C32.2257 3.95625 33.587 4.27125 34.7813 4.73438C36.0188 5.21063 37.0613 5.85562 38.1038 6.89625C39.0576 7.83325 39.7954 8.96714 40.2657 10.2187C40.7288 11.4131 41.0438 12.7744 41.1376 14.7712C41.1601 15.27 41.1788 15.6844 41.1938 16.1063L41.2051 16.47C41.2332 17.3925 41.2445 18.4631 41.2482 20.5725L41.2501 21.9713V24.4275C41.2547 25.7951 41.2403 27.1628 41.207 28.53L41.1957 28.8937C41.1807 29.3156 41.162 29.73 41.1395 30.2288C41.0457 32.2256 40.727 33.585 40.2657 34.7812C39.7954 36.0329 39.0576 37.1668 38.1038 38.1038C37.1668 39.0576 36.033 39.7953 34.7813 40.2656C33.587 40.7288 32.2257 41.0438 30.2307 41.1375L28.8957 41.1937L28.532 41.205C27.6076 41.2313 26.537 41.2444 24.4276 41.2481L23.0288 41.25H20.5745C19.2062 41.2548 17.8379 41.2404 16.4701 41.2069L16.1063 41.1956C15.6612 41.1788 15.2162 41.1594 14.7713 41.1375C12.7763 41.0438 11.4151 40.7288 10.2188 40.2656C8.9679 39.7951 7.83467 39.0573 6.89821 38.1038C5.94374 37.1669 5.20529 36.033 4.73447 34.7812C4.27134 33.5869 3.95634 32.2256 3.86259 30.2288L3.80634 28.8937L3.79697 28.53C3.7624 27.1628 3.74677 25.7952 3.75009 24.4275V20.5725C3.7449 19.2049 3.75865 17.8372 3.79134 16.47L3.80447 16.1063C3.81947 15.6844 3.83821 15.27 3.86071 14.7712C3.95446 12.7744 4.26946 11.415 4.73259 10.2187C5.20452 8.96662 5.94426 7.83269 6.90009 6.89625C7.836 5.9429 8.96857 5.20514 10.2188 4.73438C11.4151 4.27125 12.7745 3.95625 14.7713 3.8625C15.2701 3.84 15.6863 3.82125 16.1063 3.80625L16.4701 3.795C17.8373 3.76169 19.205 3.74731 20.5726 3.75187L24.4276 3.75ZM22.5001 13.125C20.0137 13.125 17.6291 14.1127 15.871 15.8709C14.1128 17.629 13.1251 20.0136 13.1251 22.5C13.1251 24.9864 14.1128 27.371 15.871 29.1291C17.6291 30.8873 20.0137 31.875 22.5001 31.875C24.9865 31.875 27.3711 30.8873 29.1292 29.1291C30.8874 27.371 31.8751 24.9864 31.8751 22.5C31.8751 20.0136 30.8874 17.629 29.1292 15.8709C27.3711 14.1127 24.9865 13.125 22.5001 13.125ZM22.5001 16.875C23.2388 16.8749 23.9703 17.0203 24.6528 17.3028C25.3353 17.5854 25.9554 17.9996 26.4778 18.5219C27.0003 19.0441 27.4147 19.6641 27.6975 20.3465C27.9803 21.0289 28.1259 21.7604 28.126 22.4991C28.1262 23.2377 27.9808 23.9692 27.6982 24.6517C27.4156 25.3342 27.0014 25.9544 26.4792 26.4768C25.9569 26.9992 25.3369 27.4137 24.6545 27.6965C23.9721 27.9793 23.2407 28.1249 22.502 28.125C21.0101 28.125 19.5794 27.5324 18.5245 26.4775C17.4696 25.4226 16.877 23.9918 16.877 22.5C16.877 21.0082 17.4696 19.5774 18.5245 18.5225C19.5794 17.4676 21.0101 16.875 22.502 16.875M32.3457 10.3125C31.7241 10.3125 31.128 10.5594 30.6884 10.999C30.2489 11.4385 30.002 12.0346 30.002 12.6562C30.002 13.2779 30.2489 13.874 30.6884 14.3135C31.128 14.7531 31.7241 15 32.3457 15C32.9673 15 33.5635 14.7531 34.003 14.3135C34.4425 13.874 34.6895 13.2779 34.6895 12.6562C34.6895 12.0346 34.4425 11.4385 34.003 10.999C33.5635 10.5594 32.9673 10.3125 32.3457 10.3125Z" fill="black"/>
</svg>
