<svg width="44" height="45" viewBox="0 0 44 45" fill="none" xmlns="http://www.w3.org/2000/svg">
<path d="M37.5285 3.75002H6.47186C6.12275 3.74506 5.77611 3.81048 5.45173 3.94255C5.12734 4.07462 4.83158 4.27074 4.58132 4.51973C4.33106 4.76871 4.1312 5.06568 3.99317 5.39366C3.85514 5.72165 3.78164 6.07423 3.77686 6.43127V38.5688C3.78164 38.9258 3.85514 39.2784 3.99317 39.6064C4.1312 39.9344 4.33106 40.2313 4.58132 40.4803C4.83158 40.7293 5.12734 40.9254 5.45173 41.0575C5.77611 41.1896 6.12275 41.255 6.47186 41.25H37.5285C37.8776 41.255 38.2243 41.1896 38.5487 41.0575C38.873 40.9254 39.1688 40.7293 39.4191 40.4803C39.6693 40.2313 39.8692 39.9344 40.0072 39.6064C40.1452 39.2784 40.2187 38.9258 40.2235 38.5688V6.43127C40.2187 6.07423 40.1452 5.72165 40.0072 5.39366C39.8692 5.06568 39.6693 4.76871 39.4191 4.51973C39.1688 4.27074 38.873 4.07462 38.5487 3.94255C38.2243 3.81048 37.8776 3.74506 37.5285 3.75002ZM14.8319 35.1375H9.33186V18.2625H14.8319V35.1375ZM12.0819 15.9C11.3233 15.9 10.5959 15.5918 10.0595 15.0433C9.52318 14.4948 9.22186 13.7508 9.22186 12.975C9.22186 12.1993 9.52318 11.4553 10.0595 10.9067C10.5959 10.3582 11.3233 10.05 12.0819 10.05C12.4846 10.0033 12.8925 10.0441 13.2788 10.1698C13.6651 10.2955 14.021 10.5032 14.3234 10.7793C14.6257 11.0555 14.8677 11.3938 15.0333 11.7722C15.1989 12.1506 15.2845 12.5604 15.2845 12.975C15.2845 13.3896 15.1989 13.7995 15.0333 14.1779C14.8677 14.5562 14.6257 14.8946 14.3234 15.1707C14.021 15.4468 13.6651 15.6546 13.2788 15.7802C12.8925 15.9059 12.4846 15.9467 12.0819 15.9ZM34.6685 35.1375H29.1685V26.0813C29.1685 23.8125 28.3802 22.3313 26.3819 22.3313C25.7634 22.3359 25.1612 22.5343 24.6564 22.8997C24.1516 23.2651 23.7684 23.78 23.5585 24.375C23.4151 24.8157 23.3529 25.2798 23.3752 25.7438V35.1188H17.8752V18.2438H23.3752V20.625C23.8748 19.7383 24.6015 19.0079 25.477 18.5123C26.3525 18.0167 27.3436 17.7747 28.3435 17.8125C32.0102 17.8125 34.6685 20.2313 34.6685 25.425V35.1375Z" fill="black"/>
</svg>
