<svg width="26" height="26" viewBox="0 0 26 26" fill="none" xmlns="http://www.w3.org/2000/svg">
<mask id="path-1-inside-1_3839_381" fill="white">
<path d="M12.5927 1.03969C12.861 0.986769 13.138 0.986769 13.4075 1.03969C13.7164 1.09877 13.997 1.24523 14.258 1.38061L14.3232 1.41507L24.5015 6.68268C24.6518 6.7605 24.7777 6.87812 24.8656 7.02268C24.9535 7.16723 25 7.33317 25 7.50236V17.2228C25 17.5711 25.0025 17.9403 24.8855 18.2837C24.7826 18.5828 24.6169 18.8565 24.3994 19.0862C24.1471 19.3496 23.8172 19.5182 23.5096 19.6769L23.432 19.7175L13.4247 24.8965C13.2935 24.9645 13.1479 25 13.0001 25C12.8523 25 12.7067 24.9645 12.5755 24.8965L2.56823 19.7175L2.4907 19.6769C2.18301 19.5182 1.85317 19.3496 1.60086 19.0862C1.38338 18.8565 1.21761 18.5828 1.11471 18.2837C0.99779 17.9391 0.99902 17.5699 1.00025 17.2216V7.50236C1.00024 7.33317 1.04672 7.16723 1.13463 7.02268C1.22254 6.87812 1.34848 6.7605 1.49871 6.68268L11.6758 1.41507L11.7411 1.38184C12.0032 1.24523 12.2826 1.09877 12.5927 1.03969ZM12.8709 2.88089C12.7539 2.93613 12.6382 2.99398 12.5238 3.05443L3.97622 7.47897L13.0001 11.8949L22.024 7.47897L13.4752 3.05443C13.3608 2.99398 13.2451 2.93613 13.1281 2.88089L13.0567 2.85135M12.0771 22.5593V13.4986L2.84639 8.98172V17.1342C2.84639 17.3644 2.84639 17.496 2.85254 17.5957L2.86362 17.6917C2.87954 17.7347 2.90333 17.7744 2.93377 17.8087C2.93992 17.8136 2.95961 17.8296 3.01254 17.8603C3.09623 17.912 3.21315 17.9711 3.41623 18.077L12.0771 22.5593Z"/>
</mask>
<path d="M12.5927 1.03969C12.861 0.986769 13.138 0.986769 13.4075 1.03969C13.7164 1.09877 13.997 1.24523 14.258 1.38061L14.3232 1.41507L24.5015 6.68268C24.6518 6.7605 24.7777 6.87812 24.8656 7.02268C24.9535 7.16723 25 7.33317 25 7.50236V17.2228C25 17.5711 25.0025 17.9403 24.8855 18.2837C24.7826 18.5828 24.6169 18.8565 24.3994 19.0862C24.1471 19.3496 23.8172 19.5182 23.5096 19.6769L23.432 19.7175L13.4247 24.8965C13.2935 24.9645 13.1479 25 13.0001 25C12.8523 25 12.7067 24.9645 12.5755 24.8965L2.56823 19.7175L2.4907 19.6769C2.18301 19.5182 1.85317 19.3496 1.60086 19.0862C1.38338 18.8565 1.21761 18.5828 1.11471 18.2837C0.99779 17.9391 0.99902 17.5699 1.00025 17.2216V7.50236C1.00024 7.33317 1.04672 7.16723 1.13463 7.02268C1.22254 6.87812 1.34848 6.7605 1.49871 6.68268L11.6758 1.41507L11.7411 1.38184C12.0032 1.24523 12.2826 1.09877 12.5927 1.03969ZM12.8709 2.88089C12.7539 2.93613 12.6382 2.99398 12.5238 3.05443L3.97622 7.47897L13.0001 11.8949L22.024 7.47897L13.4752 3.05443C13.3608 2.99398 13.2451 2.93613 13.1281 2.88089L13.0567 2.85135M12.0771 22.5593V13.4986L2.84639 8.98172V17.1342C2.84639 17.3644 2.84639 17.496 2.85254 17.5957L2.86362 17.6917C2.87954 17.7347 2.90333 17.7744 2.93377 17.8087C2.93992 17.8136 2.95961 17.8296 3.01254 17.8603C3.09623 17.912 3.21315 17.9711 3.41623 18.077L12.0771 22.5593Z" fill="black"/>
<path d="M12.8709 2.87966L13.0499 3.34653L13.1237 3.31823L12.9447 2.85135L12.7658 2.38448L12.6919 2.41279L12.8709 2.87966ZM12.5927 1.03969L12.7799 2.02205L12.7863 2.02079L12.5927 1.03969ZM13.4075 1.03969L13.2148 2.02097L13.2197 2.02189L13.4075 1.03969ZM14.258 1.38061L14.7251 0.496389L14.7185 0.49298L14.258 1.38061ZM14.3232 1.41507L13.8561 2.2993L13.8636 2.30318L14.3232 1.41507ZM24.5015 6.68268L24.9615 5.79476L24.9612 5.79457L24.5015 6.68268ZM25 7.50236L24 7.50228V7.50236H25ZM24.8855 18.2837L25.8312 18.609L25.8322 18.6061L24.8855 18.2837ZM24.3994 19.0862L25.1215 19.7779L25.1256 19.7737L24.3994 19.0862ZM23.5096 19.6769L23.051 18.7882L23.0455 18.7911L23.5096 19.6769ZM23.432 19.7175L23.8916 20.6057L23.896 20.6034L23.432 19.7175ZM13.4247 24.8965L12.9651 24.0084L12.9647 24.0086L13.4247 24.8965ZM12.5755 24.8965L13.0355 24.0086L13.0351 24.0084L12.5755 24.8965ZM2.56823 19.7175L2.1042 20.6034L2.10861 20.6057L2.56823 19.7175ZM2.4907 19.6769L2.95473 18.7911L2.94925 18.7883L2.4907 19.6769ZM1.60086 19.0862L0.874681 19.7737L0.878733 19.7779L1.60086 19.0862ZM1.11471 18.2837L0.167725 18.605L0.169099 18.609L1.11471 18.2837ZM1.00025 17.2216L2.00025 17.2251V17.2216H1.00025ZM1.00025 7.50236H2.00025V7.50228L1.00025 7.50236ZM1.49871 6.68268L1.03904 5.79459L1.03871 5.79476L1.49871 6.68268ZM11.6758 1.41507L11.2219 0.52401L11.2162 0.52698L11.6758 1.41507ZM11.7411 1.38184L12.195 2.27292L12.2032 2.26865L11.7411 1.38184ZM12.5238 3.05443L12.9835 3.94254L12.9911 3.93856L12.5238 3.05443ZM3.97622 7.47897L3.51652 6.5909L1.75243 7.50406L3.53667 8.37719L3.97622 7.47897ZM13.0001 11.8949L12.5606 12.7931L13.0001 13.0082L13.4397 12.7931L13.0001 11.8949ZM22.024 7.47897L22.4636 8.37719L24.248 7.50399L22.4837 6.59087L22.024 7.47897ZM13.4752 3.05443L13.0079 3.93859L13.0155 3.94253L13.4752 3.05443ZM13.1281 2.88089L13.5551 1.97662L13.533 1.9662L13.5105 1.95688L13.1281 2.88089ZM12.0771 22.5593L11.6174 23.4475L13.0771 24.2029V22.5593H12.0771ZM12.0771 13.4986H13.0771V12.8746L12.5166 12.6003L12.0771 13.4986ZM2.84639 8.98172L3.28592 8.08349L1.84639 7.37908V8.98172H2.84639ZM2.85254 17.5957L1.85444 17.6573L1.85608 17.6839L1.85913 17.7104L2.85254 17.5957ZM2.86362 17.6917L1.87021 17.8064L1.88402 17.9261L1.92587 18.0391L2.86362 17.6917ZM2.93377 17.8087L2.18602 18.4726L2.24257 18.5363L2.30908 18.5895L2.93377 17.8087ZM3.01254 17.8603L3.53803 17.0095L3.52668 17.0025L3.51516 16.9958L3.01254 17.8603ZM3.41623 18.077L2.95403 18.9637L2.95659 18.9651L3.41623 18.077ZM12.5927 1.03969L12.7863 2.02079C12.9265 1.99313 13.0722 1.99296 13.2148 2.02096L13.4075 1.03969L13.6002 0.0584275C13.2037 -0.0194185 12.7956 -0.0195891 12.3992 0.0585949L12.5927 1.03969ZM13.4075 1.03969L13.2197 2.02189C13.3612 2.04895 13.5131 2.12075 13.7974 2.26824L14.258 1.38061L14.7185 0.49298C14.4809 0.369707 14.0717 0.148581 13.5953 0.0574902L13.4075 1.03969ZM14.258 1.38061L13.7908 2.26481L13.8561 2.29927L14.3232 1.41507L14.7903 0.530874L14.7251 0.496413L14.258 1.38061ZM14.3232 1.41507L13.8636 2.30318L24.0419 7.57079L24.5015 6.68268L24.9612 5.79457L14.7828 0.526957L14.3232 1.41507ZM24.5015 6.68268L24.0415 7.5706C24.029 7.56411 24.0185 7.55431 24.0112 7.54226L24.8656 7.02268L25.72 6.5031C25.5369 6.20193 25.2745 5.9569 24.9615 5.79476L24.5015 6.68268ZM24.8656 7.02268L24.0112 7.54226C24.0039 7.53021 24 7.51638 24 7.50228L25 7.50236L26 7.50244C26 7.14996 25.9032 6.80426 25.72 6.5031L24.8656 7.02268ZM25 7.50236H24V17.2228H25H26V7.50236H25ZM25 17.2228H24C24 17.6076 23.9928 17.8031 23.9389 17.9614L24.8855 18.2837L25.8322 18.6061C26.0121 18.0776 26 17.5346 26 17.2228H25ZM24.8855 18.2837L23.9399 17.9584C23.8835 18.1225 23.7925 18.2726 23.6732 18.3987L24.3994 19.0862L25.1256 19.7737C25.4412 19.4403 25.6818 19.0432 25.8311 18.609L24.8855 18.2837ZM24.3994 19.0862L23.6773 18.3944C23.5604 18.5164 23.3881 18.6143 23.051 18.7883L23.5096 19.6769L23.9681 20.5656C24.2464 20.422 24.7338 20.1827 25.1215 19.7779L24.3994 19.0862ZM23.5096 19.6769L23.0455 18.7911L22.968 18.8317L23.432 19.7175L23.896 20.6034L23.9736 20.5628L23.5096 19.6769ZM23.432 19.7175L22.9724 18.8294L12.9651 24.0084L13.4247 24.8965L13.8844 25.7847L23.8916 20.6057L23.432 19.7175ZM13.4247 24.8965L12.9647 24.0086C12.9757 24.003 12.9878 24 13.0001 24V25V26C13.308 26 13.6114 25.9261 13.8847 25.7845L13.4247 24.8965ZM13.0001 25V24C13.0124 24 13.0246 24.003 13.0355 24.0086L12.5755 24.8965L12.1155 25.7845C12.3889 25.9261 12.6923 26 13.0001 26V25ZM12.5755 24.8965L13.0351 24.0084L3.02785 18.8294L2.56823 19.7175L2.10861 20.6057L12.1159 25.7847L12.5755 24.8965ZM2.56823 19.7175L3.03226 18.8317L2.95472 18.7911L2.4907 19.6769L2.02667 20.5628L2.10421 20.6034L2.56823 19.7175ZM2.4907 19.6769L2.94925 18.7883C2.61216 18.6143 2.43988 18.5164 2.32299 18.3944L1.60086 19.0862L0.878733 19.7779C1.26645 20.1827 1.75386 20.422 2.03215 20.5656L2.4907 19.6769ZM1.60086 19.0862L2.32703 18.3987C2.20771 18.2726 2.11677 18.1225 2.06032 17.9584L1.11471 18.2837L0.169099 18.609C0.318449 19.0432 0.559042 19.4403 0.874694 19.7737L1.60086 19.0862ZM1.11471 18.2837L2.06169 17.9624C2.00727 17.802 1.99891 17.6026 2.00024 17.2251L1.00025 17.2216L0.000257492 17.2181C-0.000870228 17.5372 -0.011691 18.0762 0.167733 18.605L1.11471 18.2837ZM1.00025 17.2216H2.00025V7.50236H1.00025H0.000251234V17.2216H1.00025ZM1.00025 7.50236L2.00025 7.50228C2.00025 7.51638 1.99638 7.53021 1.98905 7.54226L1.13463 7.02268L0.28021 6.5031C0.09707 6.80426 0.000222623 7.14996 0.000251234 7.50244L1.00025 7.50236ZM1.13463 7.02268L1.98905 7.54226C1.98172 7.55431 1.97123 7.56411 1.95871 7.5706L1.49871 6.68268L1.03871 5.79476C0.725739 5.9569 0.46335 6.20193 0.28021 6.5031L1.13463 7.02268ZM1.49871 6.68268L1.95838 7.57077L12.1355 2.30316L11.6758 1.41507L11.2162 0.52698L1.03904 5.79459L1.49871 6.68268ZM11.6758 1.41507L12.1298 2.30611L12.195 2.27288L11.7411 1.38184L11.2871 0.490798L11.2219 0.524028L11.6758 1.41507ZM11.7411 1.38184L12.2032 2.26865C12.4885 2.11999 12.6384 2.04896 12.7799 2.02203L12.5927 1.03969L12.4056 0.0573529C11.9267 0.148571 11.518 0.370459 11.2789 0.495031L11.7411 1.38184ZM12.8709 2.88089L12.4439 1.97662C12.3134 2.03826 12.1842 2.10284 12.0566 2.1703L12.5238 3.05443L12.9911 3.93856C13.0922 3.88513 13.1944 3.83399 13.2979 3.78517L12.8709 2.88089ZM12.5238 3.05443L12.0641 2.16635L3.51652 6.5909L3.97622 7.47897L4.43592 8.36705L12.9835 3.9425L12.5238 3.05443ZM3.97622 7.47897L3.53667 8.37719L12.5606 12.7931L13.0001 11.8949L13.4397 10.9967L4.41577 6.58076L3.97622 7.47897ZM13.0001 11.8949L13.4397 12.7931L22.4636 8.37719L22.024 7.47897L21.5845 6.58076L12.5606 10.9967L13.0001 11.8949ZM22.024 7.47897L22.4837 6.59087L13.9348 2.16633L13.4752 3.05443L13.0155 3.94253L21.5644 8.36707L22.024 7.47897ZM13.4752 3.05443L13.9424 2.1703C13.8148 2.10284 13.6856 2.03826 13.5551 1.97662L13.1281 2.88089L12.7012 3.78517C12.8046 3.83399 12.9069 3.88513 13.008 3.93856L13.4752 3.05443ZM13.1281 2.88089L13.5105 1.95688L13.4391 1.92734L13.0567 2.85135L12.6744 3.77537L12.7458 3.80491L13.1281 2.88089ZM12.0771 22.5593H13.0771V13.4986H12.0771H11.0771V22.5593H12.0771ZM12.0771 13.4986L12.5166 12.6003L3.28592 8.08349L2.84639 8.98172L2.40685 9.87995L11.6375 14.3968L12.0771 13.4986ZM2.84639 8.98172H1.84639V17.1342H2.84639H3.84639V8.98172H2.84639ZM2.84639 17.1342H1.84639C1.84639 17.3486 1.8459 17.5189 1.85444 17.6573L2.85254 17.5957L3.85064 17.5341C3.84688 17.4731 3.84639 17.3801 3.84639 17.1342H2.84639ZM2.85254 17.5957L1.85913 17.7104L1.87021 17.8064L2.86362 17.6917L3.85703 17.5771L3.84595 17.4811L2.85254 17.5957ZM2.86362 17.6917L1.92587 18.0391C1.98492 18.1985 2.07314 18.3455 2.18602 18.4726L2.93377 17.8087L3.68152 17.1447C3.73351 17.2032 3.77416 17.271 3.80136 17.3444L2.86362 17.6917ZM2.93377 17.8087L2.30908 18.5895C2.30813 18.5888 2.31308 18.5927 2.31824 18.5968C2.32397 18.6013 2.33073 18.6066 2.33844 18.6124C2.35397 18.6241 2.37075 18.6362 2.38907 18.6488C2.42525 18.6737 2.46514 18.6988 2.50992 18.7249L3.01254 17.8603L3.51516 16.9958C3.50701 16.9911 3.51059 16.9928 3.52216 17.0008C3.52817 17.0049 3.53557 17.0102 3.54402 17.0166C3.55286 17.0233 3.56035 17.0293 3.55846 17.0278L2.93377 17.8087ZM3.01254 17.8603L2.48705 18.7111C2.6114 18.788 2.77927 18.8727 2.95403 18.9637L3.41623 18.077L3.87842 17.1902C3.64703 17.0696 3.58106 17.0361 3.53803 17.0095L3.01254 17.8603ZM3.41623 18.077L2.95659 18.9651L11.6174 23.4475L12.0771 22.5593L12.5367 21.6712L3.87586 17.1889L3.41623 18.077Z" fill="black" mask="url(#path-1-inside-1_3839_381)"/>
</svg>
