<svg width="24" height="24" viewBox="0 0 24 24" fill="none" xmlns="http://www.w3.org/2000/svg">
<path d="M13.5098 2.88875C12.8578 1.70375 11.1418 1.70375 10.4888 2.88875C9.63009 4.44914 8.92221 6.08789 8.3748 7.78275C8.34899 7.84906 8.30357 7.90593 8.24462 7.94577C8.18566 7.98561 8.11596 8.00653 8.0448 8.00575C6.57777 8.04388 5.11551 8.18961 3.6698 8.44175C2.3328 8.67475 1.7438 10.2788 2.7598 11.2718C2.8878 11.3971 3.01714 11.5218 3.1478 11.6458C4.12662 12.5726 5.16301 13.4366 6.2508 14.2327C6.30022 14.2656 6.33766 14.3135 6.3575 14.3694C6.37733 14.4253 6.37849 14.4861 6.3608 14.5428C5.81164 16.1904 5.41924 17.8863 5.1888 19.6077C4.9988 21.0317 6.5068 21.9058 7.6838 21.3018C9.11268 20.5694 10.4789 19.7209 11.7688 18.7647C11.8364 18.717 11.9171 18.6913 11.9998 18.6913C12.0825 18.6913 12.1633 18.717 12.2308 18.7647C13.5199 19.722 14.8863 20.5706 16.3158 21.3018C17.4928 21.9058 19.0008 21.0317 18.8108 19.6077C18.5807 17.8863 18.1886 16.1905 17.6398 14.5428C17.6221 14.4861 17.6233 14.4253 17.6431 14.3694C17.6629 14.3135 17.7004 14.2656 17.7498 14.2327C18.9823 13.3306 20.1486 12.3414 21.2398 11.2727C22.2558 10.2787 21.6668 8.67475 20.3298 8.44175C18.8838 8.18956 17.4212 8.04383 15.9538 8.00575C15.8828 8.00633 15.8133 7.98531 15.7546 7.94548C15.6958 7.90565 15.6506 7.8489 15.6248 7.78275C15.0791 6.08724 14.3702 4.44832 13.5098 2.88875Z" fill="#FFBE39"/>
</svg>
