<svg width="80" height="40" viewBox="0 0 80 40" fill="none" xmlns="http://www.w3.org/2000/svg">
<path d="M60.7845 29.7226C60.7845 28.7757 60.6546 28.0795 60.3946 27.6339C60.1533 27.1698 59.6427 26.9377 58.863 26.9377H58.5845V26.1022H61.3415C62.5483 26.1022 63.3374 26.455 63.7087 27.1605H63.8201C64.8412 26.2693 66.0108 25.8237 67.329 25.8237C68.2388 25.8237 69.0278 26.0001 69.6962 26.3529C70.3831 26.687 70.8751 27.0398 71.1722 27.4111C71.6177 26.9284 72.1469 26.5478 72.7596 26.2693C73.3722 25.9723 74.1613 25.8237 75.1267 25.8237C78.3758 25.8237 80.0003 27.5318 80.0003 30.9479V39.1912H76.3799V30.9201C76.3799 29.639 76.1757 28.7014 75.7672 28.1073C75.3588 27.5132 74.8204 27.2162 74.152 27.2162C73.6507 27.2162 73.1866 27.3183 72.7596 27.5225C72.3325 27.7082 71.9984 27.9588 71.757 28.2744C71.7941 28.3487 71.8684 28.5529 71.9798 28.8871C72.1283 29.4441 72.2026 30.131 72.2026 30.9479V39.1912H68.5822V30.9201C68.5822 29.639 68.378 28.7014 67.9695 28.1073C67.5611 27.5132 67.0227 27.2162 66.3543 27.2162C65.9644 27.2162 65.556 27.3369 65.129 27.5782C64.7205 27.801 64.4142 28.0516 64.2099 28.3301L64.2935 28.72C64.3678 28.9428 64.4049 29.3048 64.4049 29.8061V39.1912H60.7845V29.7226Z" fill="black"/>
<path d="M51.8222 39.4697C50.5412 39.4697 49.4179 39.1726 48.4525 38.5785C47.4871 37.9844 46.7352 37.1768 46.1968 36.1557C45.6769 35.116 45.417 33.9463 45.417 32.6467C45.417 31.1986 45.6769 29.9639 46.1968 28.9428C46.7352 27.9217 47.4685 27.1512 48.3968 26.6313C49.3251 26.0929 50.3741 25.8237 51.5437 25.8237C52.6948 25.8237 53.7345 26.0558 54.6628 26.52C55.5911 26.9841 56.3245 27.6432 56.8629 28.4972C57.4013 29.3327 57.6705 30.2981 57.6705 31.3935C57.6705 31.7463 57.6519 32.1454 57.6148 32.591L57.5591 33.148H49.1766C49.1766 34.9118 49.4458 36.2021 49.9842 37.019C50.5226 37.8173 51.2745 38.2165 52.24 38.2165C53.1311 38.2165 53.8738 38.0215 54.4679 37.6317C55.0806 37.2232 55.6654 36.6477 56.2224 35.905L57.0857 36.5456C56.5473 37.381 55.8696 38.0772 55.0527 38.6342C54.2544 39.1912 53.1775 39.4697 51.8222 39.4697ZM53.9109 31.8948C53.9109 30.1496 53.7067 28.915 53.2982 28.1909C52.8898 27.4482 52.3049 27.0769 51.5437 27.0769C50.8382 27.0769 50.2627 27.4575 49.8171 28.2187C49.3901 28.9614 49.1766 30.1867 49.1766 31.8948H53.9109Z" fill="black"/>
<path d="M36.0358 39.4693C34.1606 39.4693 32.7125 38.8381 31.6913 37.5756C30.6888 36.2945 30.1875 34.6514 30.1875 32.6463C30.1875 30.6412 30.6981 29.0074 31.7192 27.7449C32.7589 26.4639 34.2442 25.8233 36.175 25.8233C36.8434 25.8233 37.5582 25.9626 38.3194 26.2411C38.5979 26.371 38.8578 26.5103 39.0991 26.6588V24.4309C39.0991 23.484 38.9692 22.7878 38.7093 22.3422C38.4493 21.8781 37.9295 21.646 37.1497 21.646H36.8712V20.8105H40.2131C40.8815 20.8105 41.392 20.9219 41.7448 21.1447C42.0975 21.3675 42.3482 21.7388 42.4967 22.2587C42.6452 22.76 42.7195 23.484 42.7195 24.4309V39.1908H40.3523L39.3776 37.9376H39.2384C39.0713 38.1975 38.8114 38.4575 38.4586 38.7174C37.8274 39.2187 37.0198 39.4693 36.0358 39.4693ZM36.5927 38.2161C37.2797 38.2161 37.9016 37.919 38.4586 37.3249C38.6628 37.1207 38.8764 36.8144 39.0991 36.4059V27.912C38.9135 27.7635 38.6907 27.6242 38.4308 27.4943C37.8367 27.2158 37.2704 27.0765 36.732 27.0765C34.8754 27.0765 33.9471 28.9331 33.9471 32.6463C33.9471 34.373 34.1513 35.7375 34.5598 36.7401C34.9868 37.7241 35.6644 38.2161 36.5927 38.2161Z" fill="black"/>
<path d="M15.3671 29.7226C15.3671 28.7757 15.2371 28.0795 14.9772 27.6339C14.7358 27.1698 14.2252 26.9377 13.4455 26.9377H13.167V26.1022H15.924C16.5553 26.1022 17.0473 26.1858 17.4 26.3529C17.7713 26.5014 18.0591 26.7613 18.2633 27.1326C19.2102 26.26 20.5655 25.8237 22.3293 25.8237C24.093 25.8237 25.4112 26.2415 26.2838 27.0769C27.175 27.8938 27.6206 29.1842 27.6206 30.9479V39.1912H24.0002V30.9201C24.0002 29.639 23.7589 28.7014 23.2761 28.1073C22.812 27.5132 22.1715 27.2162 21.3546 27.2162C20.779 27.2162 20.2685 27.2997 19.8229 27.4668C19.3959 27.6153 19.0524 27.8196 18.7925 28.0795L18.876 28.4694C18.9503 28.6922 18.9874 29.0542 18.9874 29.5555V39.1912H15.3671V29.7226Z" fill="black"/>
<path d="M6.40524 39.4697C5.12419 39.4697 4.00096 39.1726 3.03553 38.5785C2.0701 37.9844 1.31818 37.1768 0.779769 36.1557C0.259923 35.116 0 33.9463 0 32.6467C0 31.1986 0.259923 29.9639 0.779769 28.9428C1.31818 27.9217 2.05153 27.1512 2.97983 26.6313C3.90813 26.0929 4.9571 25.8237 6.12675 25.8237C7.27784 25.8237 8.31753 26.0558 9.24583 26.52C10.1741 26.9841 10.9075 27.6432 11.4459 28.4972C11.9843 29.3327 12.2535 30.2981 12.2535 31.3935C12.2535 31.7463 12.2349 32.1454 12.1978 32.591L12.1421 33.148H3.7596C3.7596 34.9118 4.02881 36.2021 4.56722 37.019C5.10563 37.8173 5.85755 38.2165 6.82298 38.2165C7.71414 38.2165 8.45678 38.0215 9.05089 37.6317C9.66356 37.2232 10.2484 36.6477 10.8054 35.905L11.6687 36.5456C11.1303 37.381 10.4526 38.0772 9.63571 38.6342C8.83738 39.1912 7.76056 39.4697 6.40524 39.4697ZM8.49391 31.8948C8.49391 30.1496 8.28968 28.915 7.88123 28.1909C7.47278 27.4482 6.88796 27.0769 6.12675 27.0769C5.42125 27.0769 4.84571 27.4575 4.40012 28.2187C3.97311 28.9614 3.7596 30.1867 3.7596 31.8948H8.49391Z" fill="black"/>
<path d="M50.8295 9.46867C50.8295 8.52181 50.6995 7.82558 50.4396 7.38C50.1982 6.91585 49.6877 6.68378 48.9079 6.68378H48.6294V5.84831H51.3864C52.5932 5.84831 53.3823 6.20107 53.7536 6.90657H53.865C54.8861 6.01541 56.0558 5.56982 57.3739 5.56982C58.2837 5.56982 59.0727 5.7462 59.7411 6.09895C60.428 6.43314 60.92 6.78589 61.2171 7.15721C61.6627 6.6745 62.1918 6.2939 62.8045 6.01541C63.4172 5.71835 64.2062 5.56982 65.1716 5.56982C68.4207 5.56982 70.0452 7.27789 70.0452 10.694V18.9373H66.4248V10.6662C66.4248 9.38512 66.2206 8.44754 65.8122 7.85343C65.4037 7.25932 64.8653 6.96227 64.1969 6.96227C63.6956 6.96227 63.2315 7.06438 62.8045 7.26861C62.3775 7.45427 62.0433 7.70491 61.8019 8.02053C61.839 8.09479 61.9133 8.29902 62.0247 8.6332C62.1732 9.19018 62.2475 9.87712 62.2475 10.694V18.9373H58.6271V10.6662C58.6271 9.38512 58.4229 8.44754 58.0145 7.85343C57.606 7.25932 57.0676 6.96227 56.3992 6.96227C56.0093 6.96227 55.6009 7.08295 55.1739 7.3243C54.7654 7.54709 54.4591 7.79773 54.2549 8.07622L54.3384 8.46611C54.4127 8.6889 54.4498 9.05094 54.4498 9.55222V18.9373H50.8295V9.46867Z" fill="black"/>
<path d="M40.9225 19.2158C39.5672 19.2158 38.379 18.9187 37.3578 18.3246C36.3553 17.7119 35.5848 16.895 35.0464 15.8739C34.508 14.8342 34.2388 13.6738 34.2388 12.3928C34.2388 11.1118 34.508 9.96067 35.0464 8.93954C35.5848 7.89985 36.3553 7.08295 37.3578 6.48884C38.379 5.87616 39.5672 5.56982 40.9225 5.56982C42.2778 5.56982 43.4567 5.87616 44.4593 6.48884C45.4804 7.08295 46.2602 7.89985 46.7986 8.93954C47.337 9.96067 47.6062 11.1118 47.6062 12.3928C47.6062 13.6738 47.337 14.8342 46.7986 15.8739C46.2602 16.895 45.4804 17.7119 44.4593 18.3246C43.4567 18.9187 42.2778 19.2158 40.9225 19.2158ZM40.9225 17.9626C41.8694 17.9626 42.5934 17.452 43.0947 16.4309C43.596 15.4098 43.8466 14.0637 43.8466 12.3928C43.8466 10.7219 43.596 9.37584 43.0947 8.35471C42.5934 7.33359 41.8694 6.82302 40.9225 6.82302C39.9756 6.82302 39.2516 7.33359 38.7503 8.35471C38.249 9.37584 37.9984 10.7219 37.9984 12.3928C37.9984 14.0637 38.249 15.4098 38.7503 16.4309C39.2516 17.452 39.9756 17.9626 40.9225 17.9626Z" fill="black"/>
<path d="M25.5587 19.2158C24.2034 19.2158 23.0152 18.9187 21.9941 18.3246C20.9915 17.7119 20.221 16.895 19.6826 15.8739C19.1442 14.8342 18.875 13.6738 18.875 12.3928C18.875 11.1118 19.1442 9.96067 19.6826 8.93954C20.221 7.89985 20.9915 7.08295 21.9941 6.48884C23.0152 5.87616 24.2034 5.56982 25.5587 5.56982C26.914 5.56982 28.093 5.87616 29.0955 6.48884C30.1167 7.08295 30.8964 7.89985 31.4348 8.93954C31.9733 9.96067 32.2425 11.1118 32.2425 12.3928C32.2425 13.6738 31.9733 14.8342 31.4348 15.8739C30.8964 16.895 30.1167 17.7119 29.0955 18.3246C28.093 18.9187 26.914 19.2158 25.5587 19.2158ZM25.5587 17.9626C26.5056 17.9626 27.2297 17.452 27.7309 16.4309C28.2322 15.4098 28.4829 14.0637 28.4829 12.3928C28.4829 10.7219 28.2322 9.37584 27.7309 8.35471C27.2297 7.33359 26.5056 6.82302 25.5587 6.82302C24.6119 6.82302 23.8878 7.33359 23.3865 8.35471C22.8852 9.37584 22.6346 10.7219 22.6346 12.3928C22.6346 14.0637 22.8852 15.4098 23.3865 16.4309C23.8878 17.452 24.6119 17.9626 25.5587 17.9626Z" fill="black"/>
<path d="M9.19013 19.4942C7.27784 19.4942 5.62547 19.0858 4.23303 18.2689C2.85915 17.4334 1.81018 16.3009 1.08611 14.8713C0.362035 13.4417 0 11.8265 0 10.0256C0 8.16901 0.399167 6.47951 1.1975 4.9571C1.99584 3.41613 3.09123 2.20934 4.48367 1.33675C5.89468 0.445582 7.4635 0 9.19013 0C10.8239 0 12.1885 0.213508 13.2839 0.640524C14.3793 1.04897 15.2148 1.58738 15.7903 2.25576C16.1245 2.68277 16.3287 3.2119 16.403 3.84314C16.4773 4.47439 16.5144 5.35627 16.5144 6.48879H15.6789C15.3262 4.78072 14.6764 3.48111 13.7295 2.58995C12.7826 1.69878 11.548 1.2532 10.0256 1.2532C8.13187 1.2532 6.63732 1.92157 5.54193 3.25832C4.44654 4.59507 3.89884 6.85082 3.89884 10.0256C3.89884 12.3835 4.40012 14.3422 5.40268 15.9017C6.40524 17.4612 7.94622 18.241 10.0256 18.241C11.3252 18.241 12.5134 17.8975 13.5903 17.2106C14.6856 16.5237 15.5675 15.5397 16.2359 14.2586L17.2106 15.0105C16.3194 16.5701 15.2426 17.7119 13.9801 18.436C12.7177 19.1415 11.121 19.4942 9.19013 19.4942Z" fill="black"/>
</svg>
